<svg xmlns="http://www.w3.org/2000/svg" xmlns:xlink="http://www.w3.org/1999/xlink" viewBox="0 0 112.55 43.1"><defs><style>.cls-1{fill:none;}.cls-2{fill:url(#linear-gradient);}.cls-3{fill:url(#linear-gradient-2);}</style><linearGradient id="linear-gradient" x1="17.58" y1="14.33" x2="135.98" y2="41.46" gradientUnits="userSpaceOnUse"><stop offset="0" stop-color="#420c77"/><stop offset="0.42" stop-color="#dc05ec"/><stop offset="1" stop-color="#4621ad"/></linearGradient><linearGradient id="linear-gradient-2" x1="33.68" y1="5.9" x2="118.05" y2="25.23" gradientUnits="userSpaceOnUse"><stop offset="0" stop-color="#880c77"/><stop offset="0.42" stop-color="#dc05ec"/><stop offset="1" stop-color="#052107"/></linearGradient></defs><title>favicon riah</title><g id="Layer_2" data-name="Layer 2"><g id="Layer_1-2" data-name="Layer 1"><path class="cls-1" d="M83.16,19.49q9,0,12-.82a9.79,9.79,0,0,0,4.61-2.55,5.22,5.22,0,0,0,1.67-3.65A3.61,3.61,0,0,0,99,9.09c-1-.44-3.12-.67-6.41-.67H80.27L78.46,15v0l-1.23,4.49Z"/><path class="cls-2" d="M110.42,6.07a10.86,10.86,0,0,0-5.6-3.56,37.54,37.54,0,0,0-9.69-1h-46A17.58,17.58,0,0,1,42.79.18,2.53,2.53,0,0,0,41.42,0a2.59,2.59,0,0,0,.44,5.15,2.56,2.56,0,0,0,1.46-.46,5.31,5.31,0,0,1,2.09-.85A6.43,6.43,0,0,1,48.1,4L68.92,9.06l-2.38,8.65-35.9-1.23a10.42,10.42,0,0,1-4.85-1.29A1.72,1.72,0,0,0,25,15a2.66,2.66,0,0,0-1.89,4.49,2.84,2.84,0,0,0,3.14.37l0,0a8.15,8.15,0,0,1,5.42-.8l32.79,6.2-1.54,5.59-.57,2.06-46.57,3.1A21,21,0,0,1,6.58,34,4.92,4.92,0,0,0,4,33.7a4.73,4.73,0,0,0,.69,9.4,4.69,4.69,0,0,0,2.11-.5,20.94,20.94,0,0,1,9.53-2l43.36,1.8,11,.49,4-14.65.09-.35a3,3,0,0,1,2.93-2.23h2.24a25.39,25.39,0,0,1,2.79.13,8.11,8.11,0,0,1,2.77.69,13.29,13.29,0,0,1,4.89,5.36,112.08,112.08,0,0,1,5.68,10.87h12c-.08-.91-1.06-2.23-1.48-3-1.92-3.67-4.53-7-6.78-10.48-1.07-1.67-2-4.12.67-4.73A18.63,18.63,0,0,0,108.4,21a10.74,10.74,0,0,0,4.15-8.66A9.52,9.52,0,0,0,110.42,6.07ZM41.91,4a1.38,1.38,0,1,1,1.37-1.38A1.38,1.38,0,0,1,41.91,4ZM25,19a1.36,1.36,0,1,1,1.35-1.36A1.36,1.36,0,0,1,25,19ZM4.69,40.9a2.59,2.59,0,1,1,2.6-2.59A2.59,2.59,0,0,1,4.69,40.9Zm96.19-26.36s0,0,0,0a7.41,7.41,0,0,1-1.14,1.55,9.94,9.94,0,0,1-4.62,2.56q-2.94.81-12,.81H81.88A3.55,3.55,0,0,1,78.46,15l1.81-6.59h12.3q4.94,0,6.41.68a3.6,3.6,0,0,1,2.41,3.37A4.55,4.55,0,0,1,100.88,14.54Z"/><path class="cls-3" d="M80.27,8.42h12.3q4.94,0,6.41.68a3.6,3.6,0,0,1,2.41,3.37C101.66,8.8,98.68,5,93.9,1.54H49.08A17.58,17.58,0,0,1,42.79.18,2.53,2.53,0,0,0,41.42,0a2.59,2.59,0,0,0,.44,5.15,2.56,2.56,0,0,0,1.46-.46,5.31,5.31,0,0,1,2.09-.85A6.43,6.43,0,0,1,48.1,4L68.92,9.06l-2.38,8.65-35.9-1.23a10.42,10.42,0,0,1-4.85-1.29A1.72,1.72,0,0,0,25,15a2.66,2.66,0,0,0-1.89,4.49,2.84,2.84,0,0,0,3.14.37l0,0a8.15,8.15,0,0,1,5.42-.8l32.79,6.2-1.54,5.59a104.89,104.89,0,0,0,11.89-2.52l.09-.35a3,3,0,0,1,2.93-2.23h2.24a25.39,25.39,0,0,1,2.79.13c7.2-2.4,15.8-6.05,18-11.23a7.41,7.41,0,0,1-1.14,1.55,9.94,9.94,0,0,1-4.62,2.56q-2.94.81-12,.81H81.88A3.55,3.55,0,0,1,78.46,15ZM41.91,4a1.38,1.38,0,1,1,1.37-1.38A1.38,1.38,0,0,1,41.91,4ZM25,19a1.36,1.36,0,1,1,1.35-1.36A1.36,1.36,0,0,1,25,19Z"/></g></g></svg>