<svg xmlns="http://www.w3.org/2000/svg" xmlns:xlink="http://www.w3.org/1999/xlink" viewBox="0 0 309.1 53.19"><defs><style>.cls-1{fill:none;}.cls-2{fill:url(#linear-gradient);}.cls-3{fill:url(#linear-gradient-2);}.cls-4{fill:url(#linear-gradient-3);}.cls-5{fill:url(#linear-gradient-4);}.cls-6{fill:url(#linear-gradient-5);}.cls-7{fill:url(#linear-gradient-6);}.cls-8{fill:url(#linear-gradient-7);}.cls-9{fill:url(#linear-gradient-8);}.cls-10{fill:url(#linear-gradient-9);}.cls-11{fill:url(#linear-gradient-10);}</style><linearGradient id="linear-gradient" x1="17.58" y1="14.33" x2="135.98" y2="41.46" gradientUnits="userSpaceOnUse"><stop offset="0" stop-color="#420c77"/><stop offset="0.42" stop-color="#dc05ec"/><stop offset="1" stop-color="#4621ad"/></linearGradient><linearGradient id="linear-gradient-2" x1="33.68" y1="5.9" x2="118.05" y2="25.23" gradientUnits="userSpaceOnUse"><stop offset="0" stop-color="#880c77"/><stop offset="0.42" stop-color="#dc05ec"/><stop offset="1" stop-color="#052107"/></linearGradient><linearGradient id="linear-gradient-3" x1="233.88" y1="3.85" x2="46.17" y2="37.92" xlink:href="#linear-gradient"/><linearGradient id="linear-gradient-4" x1="235.36" y1="12.01" x2="47.65" y2="46.08" xlink:href="#linear-gradient"/><linearGradient id="linear-gradient-5" x1="235.22" y1="11.24" x2="47.51" y2="45.31" xlink:href="#linear-gradient"/><linearGradient id="linear-gradient-6" x1="143.4" y1="27.34" x2="297.68" y2="18.34" xlink:href="#linear-gradient"/><linearGradient id="linear-gradient-7" x1="143.79" y1="34.03" x2="298.07" y2="25.03" xlink:href="#linear-gradient"/><linearGradient id="linear-gradient-8" x1="144.14" y1="40.04" x2="298.42" y2="31.04" xlink:href="#linear-gradient"/><linearGradient id="linear-gradient-9" x1="143.97" y1="37.12" x2="298.25" y2="28.12" xlink:href="#linear-gradient"/><linearGradient id="linear-gradient-10" x1="144.32" y1="43.14" x2="298.6" y2="34.14" xlink:href="#linear-gradient"/></defs><title>Riah topup logo</title><g id="Layer_2" data-name="Layer 2"><g id="Layer_1-2" data-name="Layer 1"><path class="cls-1" d="M83.16,19.49q9,0,12-.82a9.79,9.79,0,0,0,4.61-2.55,5.22,5.22,0,0,0,1.67-3.65A3.61,3.61,0,0,0,99,9.09c-1-.44-3.12-.67-6.41-.67H80.27L78.46,15v0l-1.23,4.49Z"/><path class="cls-2" d="M110.42,6.07a10.86,10.86,0,0,0-5.6-3.56,37.54,37.54,0,0,0-9.69-1h-46A17.58,17.58,0,0,1,42.79.18,2.53,2.53,0,0,0,41.42,0a2.59,2.59,0,0,0,.44,5.15,2.56,2.56,0,0,0,1.46-.46,5.31,5.31,0,0,1,2.09-.85A6.43,6.43,0,0,1,48.1,4L68.92,9.06l-2.38,8.65-35.9-1.23a10.42,10.42,0,0,1-4.85-1.29A1.72,1.72,0,0,0,25,15a2.66,2.66,0,0,0-1.89,4.49,2.84,2.84,0,0,0,3.14.37l0,0a8.15,8.15,0,0,1,5.42-.8l32.79,6.2-1.54,5.59-.57,2.06-46.57,3.1A21,21,0,0,1,6.58,34,4.92,4.92,0,0,0,4,33.7a4.73,4.73,0,0,0,.69,9.4,4.69,4.69,0,0,0,2.11-.5,20.94,20.94,0,0,1,9.53-2l43.36,1.8,11,.49,4-14.65.09-.35a3,3,0,0,1,2.93-2.23h2.24a25.39,25.39,0,0,1,2.79.13,8.11,8.11,0,0,1,2.77.69,13.29,13.29,0,0,1,4.89,5.36,112.08,112.08,0,0,1,5.68,10.87h12c-.08-.91-1.06-2.23-1.48-3-1.92-3.67-4.53-7-6.78-10.48-1.07-1.67-2-4.12.67-4.73A18.63,18.63,0,0,0,108.4,21a10.74,10.74,0,0,0,4.15-8.66A9.52,9.52,0,0,0,110.42,6.07ZM41.91,4a1.38,1.38,0,1,1,1.37-1.38A1.38,1.38,0,0,1,41.91,4ZM25,19a1.36,1.36,0,1,1,1.35-1.36A1.36,1.36,0,0,1,25,19ZM4.69,40.9a2.59,2.59,0,1,1,2.6-2.59A2.59,2.59,0,0,1,4.69,40.9Zm96.19-26.36s0,0,0,0a7.41,7.41,0,0,1-1.14,1.55,9.94,9.94,0,0,1-4.62,2.56q-2.94.81-12,.81H81.88A3.55,3.55,0,0,1,78.46,15l1.81-6.59h12.3q4.94,0,6.41.68a3.6,3.6,0,0,1,2.41,3.37A4.55,4.55,0,0,1,100.88,14.54Z"/><path class="cls-3" d="M80.27,8.42h12.3q4.94,0,6.41.68a3.6,3.6,0,0,1,2.41,3.37C101.66,8.8,98.68,5,93.9,1.54H49.08A17.58,17.58,0,0,1,42.79.18,2.53,2.53,0,0,0,41.42,0a2.59,2.59,0,0,0,.44,5.15,2.56,2.56,0,0,0,1.46-.46,5.31,5.31,0,0,1,2.09-.85A6.43,6.43,0,0,1,48.1,4L68.92,9.06l-2.38,8.65-35.9-1.23a10.42,10.42,0,0,1-4.85-1.29A1.72,1.72,0,0,0,25,15a2.66,2.66,0,0,0-1.89,4.49,2.84,2.84,0,0,0,3.14.37l0,0a8.15,8.15,0,0,1,5.42-.8l32.79,6.2-1.54,5.59a104.89,104.89,0,0,0,11.89-2.52l.09-.35a3,3,0,0,1,2.93-2.23h2.24a25.39,25.39,0,0,1,2.79.13c7.2-2.4,15.8-6.05,18-11.23a7.41,7.41,0,0,1-1.14,1.55,9.94,9.94,0,0,1-4.62,2.56q-2.94.81-12,.81H81.88A3.55,3.55,0,0,1,78.46,15ZM41.91,4a1.38,1.38,0,1,1,1.37-1.38A1.38,1.38,0,0,1,41.91,4ZM25,19a1.36,1.36,0,1,1,1.35-1.36A1.36,1.36,0,0,1,25,19Z"/><path class="cls-4" d="M116.41,16.64h7.15L118,43.1h-7.15ZM118.5,6.57h7.16l-1.35,6.48h-7.15Z"/><path class="cls-5" d="M130.61,24.14l-7-.6A10.53,10.53,0,0,1,127.8,18a14,14,0,0,1,7.89-2c3.41,0,5.92.69,7.55,2.06a6.32,6.32,0,0,1,2.44,5,16.5,16.5,0,0,1-.21,2.54c-.14.9-.64,3.26-1.48,7.08a36.06,36.06,0,0,0-1.05,6.63,13.61,13.61,0,0,0,.6,3.76h-6.95a13.47,13.47,0,0,1-.53-3,11,11,0,0,1-3.61,2.68,9.83,9.83,0,0,1-4.11.93,7.36,7.36,0,0,1-5.43-2.15A7.54,7.54,0,0,1,120.76,36,8,8,0,0,1,123.12,30c1.57-1.51,4.37-2.43,8.41-2.74a33.83,33.83,0,0,0,6.83-1,8.74,8.74,0,0,0,.45-2.39,2.41,2.41,0,0,0-.93-1.92,4.2,4.2,0,0,0-2.74-.77,5.12,5.12,0,0,0-3,.79A3.83,3.83,0,0,0,130.61,24.14Zm6.8,6.62a14,14,0,0,1-1.72.33q-5.38.64-7,1.89a2.9,2.9,0,0,0-1.17,2.42,2.78,2.78,0,0,0,.9,2.1,3.26,3.26,0,0,0,2.37.86,6.29,6.29,0,0,0,3.05-.78,5.37,5.37,0,0,0,2.14-2,13.62,13.62,0,0,0,1.26-3.85Z"/><path class="cls-6" d="M151.61,43.1h-7.16L152.1,6.57h7.16l-2.75,13A18.62,18.62,0,0,1,161,16.85a12,12,0,0,1,4.49-.84,6.91,6.91,0,0,1,5.08,1.85,6.47,6.47,0,0,1,1.87,4.83,26.49,26.49,0,0,1-.7,4.93L168.52,43.1h-7.15l3.32-15.77a22.13,22.13,0,0,0,.52-3.29,2.81,2.81,0,0,0-.82-2.12,3.1,3.1,0,0,0-2.24-.8,5.61,5.61,0,0,0-3.44,1.25,10.81,10.81,0,0,0-3.27,4,36.71,36.71,0,0,0-1.64,6.21Z"/><path class="cls-7" d="M191.57,43.1H184l6.38-30.43H179.71L181,6.57h28.78l-1.27,6.1H197.92Z"/><path class="cls-8" d="M201.4,32.11q0-7.35,4.15-11.72A14.33,14.33,0,0,1,216.45,16q5.87,0,9.15,3.23a11.62,11.62,0,0,1,3.29,8.68A16.32,16.32,0,0,1,224.78,39a13.94,13.94,0,0,1-11,4.68,14.25,14.25,0,0,1-6.62-1.49A9.79,9.79,0,0,1,202.82,38,12.7,12.7,0,0,1,201.4,32.11ZM221.79,27a5.64,5.64,0,0,0-1.48-4.07,5.11,5.11,0,0,0-3.83-1.53,6.37,6.37,0,0,0-4.11,1.43A9.1,9.1,0,0,0,209.58,27a14.6,14.6,0,0,0-1,5,6.38,6.38,0,0,0,1.55,4.51A5.07,5.07,0,0,0,214,38.19,6.08,6.08,0,0,0,219,35.67,13.47,13.47,0,0,0,221.79,27Z"/><path class="cls-9" d="M232.3,16.64h6.77l-.57,2.71a16.19,16.19,0,0,1,4.06-2.56,10.56,10.56,0,0,1,4.06-.78,8.47,8.47,0,0,1,6.69,2.87q2.53,2.86,2.53,8.55a17.59,17.59,0,0,1-4.36,12.08,11.45,11.45,0,0,1-8.84,4.21,8.8,8.8,0,0,1-7.95-4.26l-2.87,13.73h-7.15Zm4.31,15.17a7,7,0,0,0,1.5,4.8,4.6,4.6,0,0,0,3.56,1.7A5.47,5.47,0,0,0,245.08,37a9.35,9.35,0,0,0,2.73-4.26,16.23,16.23,0,0,0,1.08-5.52,6.58,6.58,0,0,0-1.42-4.55,4.66,4.66,0,0,0-3.61-1.58,5.58,5.58,0,0,0-3.73,1.46,9.32,9.32,0,0,0-2.6,4.28A16.17,16.17,0,0,0,236.61,31.81Z"/><path class="cls-10" d="M259.1,16.64h7.15L263,32.31a24.7,24.7,0,0,0-.6,3.51,2.63,2.63,0,0,0,.85,2,3,3,0,0,0,2.16.82,5.05,5.05,0,0,0,1.87-.36,7.94,7.94,0,0,0,1.9-1.09,9.93,9.93,0,0,0,1.74-1.69A10.55,10.55,0,0,0,272.36,33a24.56,24.56,0,0,0,1-3.74L276,16.64h7.15L277.64,43.1H271l.75-3.59a13.55,13.55,0,0,1-9.54,4.21A6.94,6.94,0,0,1,257,41.85a6.78,6.78,0,0,1-1.87-5,34.62,34.62,0,0,1,.85-5.45Z"/><path class="cls-11" d="M285.56,16.64h6.77l-.57,2.71a16.19,16.19,0,0,1,4.06-2.56,10.56,10.56,0,0,1,4.06-.78,8.51,8.51,0,0,1,6.7,2.87q2.52,2.86,2.52,8.55a17.59,17.59,0,0,1-4.36,12.08,11.45,11.45,0,0,1-8.84,4.21A8.8,8.8,0,0,1,288,39.46l-2.87,13.73h-7.15Zm4.31,15.17a7,7,0,0,0,1.5,4.8,4.6,4.6,0,0,0,3.56,1.7A5.45,5.45,0,0,0,298.34,37a9.19,9.19,0,0,0,2.73-4.26,16.23,16.23,0,0,0,1.08-5.52,6.58,6.58,0,0,0-1.42-4.55,4.64,4.64,0,0,0-3.61-1.58,5.58,5.58,0,0,0-3.73,1.46,9.32,9.32,0,0,0-2.6,4.28A16.17,16.17,0,0,0,289.87,31.81Z"/></g></g></svg>